<svg width="21" height="21" viewBox="0 0 32 32" xmlns="http://www.w3.org/2000/svg"><g id="Page-1" stroke="none" stroke-width="1" fill="none" fill-rule="evenodd"><g id="Icon-Set" transform="translate(-100 -255)" fill="#fff"><path d="M116 281c-1.168 0-2.296-.136-3.38-.367l-4.708 2.83.063-4.639c-3.609-2.17-5.975-5.758-5.975-9.824 0-6.627 6.268-12 14-12s14 5.373 14 12c0 6.628-6.268 12-14 12Zm0-26c-8.836 0-16 6.269-16 14 0 4.419 2.345 8.354 6 10.919V287l7.009-4.253c.97.16 1.968.253 2.991.253 8.836 0 16-6.268 16-14 0-7.731-7.164-14-16-14Z" id="comment-1"/></g></g></svg>